<?xml version="1.0" encoding="UTF-8" standalone="no"?><!-- Generator: Gravit.io --><svg xmlns="http://www.w3.org/2000/svg" xmlns:xlink="http://www.w3.org/1999/xlink" style="isolation:isolate" viewBox="0 0 500 500" width="500pt" height="500pt"><defs><clipPath id="_clipPath_5lr6dAnROBQsQQMChEjVEGumW78xBXDY"><rect width="500" height="500"/></clipPath></defs><g clip-path="url(#_clipPath_5lr6dAnROBQsQQMChEjVEGumW78xBXDY)"><clipPath id="_clipPath_A7UBhD0YTEFBYAVi5V17ebvhBGFGW5H2"><rect x="0" y="0" width="500" height="500" transform="matrix(1,0,0,1,0,0)" fill="rgb(255,255,255)"/></clipPath><g clip-path="url(#_clipPath_A7UBhD0YTEFBYAVi5V17ebvhBGFGW5H2)"><g><g><g><circle vector-effect="non-scaling-stroke" cx="250.00000000000003" cy="250.00000000000003" r="240" fill="rgb(255,255,255)"/><clipPath id="_clipPath_B6f9FrZOpeyGAgyVE2NwQh88V5nSHUwk"><circle vector-effect="non-scaling-stroke" cx="250.00000000000003" cy="250.00000000000003" r="240" fill="rgb(255,255,255)"/></clipPath><g clip-path="url(#_clipPath_B6f9FrZOpeyGAgyVE2NwQh88V5nSHUwk)"><g><g><g><g><path d=" M 348.691 153.391 L 348.443 153.246 L 347.87 153.071 C 348.1 153.265 348.389 153.378 348.691 153.391 L 348.691 153.391 L 348.691 153.391 Z " fill="rgb(13,12,34)"/><line x1="352.303" y1="179.204" x2="352.026" y2="179.282"/><path d=" M 348.797 153.352 C 348.762 153.347 348.727 153.339 348.694 153.327 C 348.692 153.35 348.692 153.373 348.694 153.396 C 348.731 153.391 348.767 153.376 348.797 153.352 L 348.797 153.352 L 348.797 153.352 Z " fill="rgb(13,12,34)"/><path d=" M 348.692 153.395 L 348.729 153.395 L 348.729 153.371 L 348.692 153.395 L 348.692 153.395 Z " fill="rgb(13,12,34)"/><path d=" M 352.082 179.157 L 352.5 178.919 L 352.655 178.832 L 352.796 178.681 C 352.531 178.795 352.289 178.957 352.082 179.157 L 352.082 179.157 L 352.082 179.157 Z " fill="rgb(13,12,34)"/><path d=" M 349.414 153.956 L 349.006 153.567 L 348.729 153.416 C 348.878 153.679 349.124 153.873 349.414 153.956 L 349.414 153.956 L 349.414 153.956 Z " fill="rgb(13,12,34)"/><path d=" M 246.685 404.434 C 246.359 404.575 246.073 404.796 245.854 405.075 L 246.111 404.911 C 246.286 404.75 246.534 404.561 246.685 404.434 Z " fill="rgb(13,12,34)"/><path d=" M 306.339 392.696 C 306.339 392.329 306.159 392.397 306.203 393.708 C 306.203 393.603 306.246 393.496 306.266 393.394 C 306.29 393.16 306.31 392.931 306.339 392.696 Z " fill="rgb(13,12,34)"/><path d=" M 300.151 404.434 C 299.825 404.575 299.539 404.796 299.32 405.075 L 299.578 404.911 C 299.753 404.75 300.001 404.561 300.151 404.434 Z " fill="rgb(13,12,34)"/><path d=" M 204.674 407.225 C 204.426 407.01 204.123 406.869 203.799 406.815 C 204.061 406.943 204.324 407.07 204.499 407.166 L 204.674 407.225 L 204.674 407.225 Z " fill="rgb(13,12,34)"/><path d=" M 195.221 398.171 C 195.182 397.79 195.064 397.42 194.875 397.083 C 195.009 397.431 195.121 397.79 195.211 398.151 L 195.221 398.171 L 195.221 398.171 Z " fill="rgb(13,12,34)"/><path d=" M 258.72 236.252 C 245.742 241.808 231.014 248.107 211.926 248.107 C 203.941 248.092 195.994 246.996 188.303 244.851 L 201.505 380.394 C 201.972 386.058 204.553 391.34 208.735 395.191 C 212.916 399.041 218.393 401.177 224.078 401.177 C 224.078 401.177 242.796 402.149 249.043 402.149 C 255.765 402.149 275.922 401.177 275.922 401.177 C 281.606 401.177 287.082 399.038 291.263 395.188 C 295.444 391.338 298.024 386.058 298.491 380.394 L 312.631 230.614 C 306.312 228.456 299.934 227.022 292.745 227.022 C 280.312 227.017 270.294 231.299 258.72 236.252 Z " fill="rgb(255,221,0)"/><path d=" M 147.436 178.424 L 147.659 178.633 L 147.805 178.721 C 147.693 178.609 147.569 178.51 147.436 178.424 L 147.436 178.424 L 147.436 178.424 Z " fill="rgb(13,12,34)"/><path d=" M 373.68 165.915 L 371.692 155.887 C 369.908 146.89 365.859 138.388 356.624 135.137 C 353.664 134.096 350.305 133.649 348.035 131.496 C 345.765 129.343 345.094 125.998 344.569 122.897 C 343.597 117.205 342.683 111.508 341.687 105.826 C 340.826 100.941 340.146 95.454 337.905 90.972 C 334.989 84.954 328.937 81.435 322.919 79.107 C 319.836 77.956 316.689 76.982 313.494 76.19 C 298.46 72.224 282.653 70.766 267.186 69.935 C 248.622 68.91 230.008 69.219 211.487 70.858 C 197.702 72.112 183.183 73.629 170.083 78.397 C 165.296 80.142 160.362 82.237 156.721 85.936 C 152.254 90.481 150.796 97.51 154.057 103.177 C 156.376 107.202 160.304 110.045 164.469 111.927 C 169.895 114.35 175.562 116.195 181.375 117.429 C 197.561 121.006 214.326 122.411 230.862 123.009 C 249.19 123.749 267.547 123.149 285.788 121.215 C 290.299 120.719 294.802 120.125 299.296 119.432 C 304.59 118.62 307.987 111.698 306.427 106.876 C 304.56 101.112 299.544 98.876 293.872 99.746 C 293.036 99.877 292.205 99.998 291.368 100.12 L 290.766 100.207 C 288.844 100.45 286.922 100.677 285.001 100.888 C 281.031 101.315 277.052 101.665 273.063 101.938 C 264.129 102.56 255.171 102.847 246.217 102.861 C 237.419 102.861 228.616 102.613 219.838 102.035 C 215.833 101.773 211.837 101.439 207.851 101.034 C 206.038 100.844 204.23 100.645 202.422 100.421 L 200.701 100.202 L 200.327 100.149 L 198.543 99.891 C 194.897 99.342 191.252 98.71 187.645 97.947 C 187.281 97.866 186.956 97.664 186.722 97.373 C 186.489 97.082 186.362 96.721 186.362 96.348 C 186.362 95.975 186.489 95.613 186.722 95.323 C 186.956 95.032 187.281 94.829 187.645 94.749 L 187.713 94.749 C 190.839 94.083 193.988 93.514 197.148 93.018 C 198.201 92.853 199.257 92.691 200.317 92.532 L 200.346 92.532 C 202.324 92.401 204.313 92.046 206.281 91.813 C 223.409 90.031 240.638 89.424 257.849 89.995 C 266.204 90.238 274.555 90.729 282.872 91.575 C 284.66 91.759 286.44 91.954 288.219 92.172 C 288.899 92.255 289.584 92.352 290.27 92.435 L 291.65 92.634 C 295.675 93.234 299.678 93.961 303.661 94.817 C 309.562 96.1 317.14 96.518 319.765 102.983 C 320.601 105.034 320.98 107.314 321.442 109.467 L 322.03 112.213 C 322.045 112.262 322.057 112.313 322.064 112.364 C 323.454 118.845 324.846 125.326 326.239 131.807 C 326.341 132.286 326.344 132.78 326.246 133.26 C 326.149 133.74 325.954 134.194 325.673 134.595 C 325.392 134.996 325.031 135.335 324.613 135.59 C 324.196 135.846 323.73 136.012 323.245 136.08 L 323.206 136.08 L 322.355 136.196 L 321.515 136.308 C 318.851 136.655 316.184 136.979 313.514 137.28 C 308.254 137.88 302.987 138.398 297.712 138.836 C 287.229 139.707 276.725 140.279 266.199 140.551 C 260.837 140.694 255.475 140.761 250.115 140.751 C 228.782 140.734 207.466 139.494 186.275 137.037 C 183.98 136.765 181.686 136.473 179.392 136.177 C 181.171 136.405 178.099 136.002 177.477 135.914 C 176.018 135.71 174.56 135.498 173.102 135.278 C 168.207 134.543 163.342 133.639 158.456 132.847 C 152.551 131.875 146.903 132.361 141.561 135.278 C 137.176 137.677 133.627 141.357 131.387 145.825 C 129.083 150.589 128.398 155.775 127.367 160.894 C 126.337 166.012 124.733 171.519 125.34 176.774 C 126.648 188.114 134.576 197.33 145.979 199.391 C 156.707 201.335 167.493 202.91 178.308 204.251 C 220.792 209.455 263.712 210.077 306.33 206.108 C 309.8 205.784 313.266 205.431 316.727 205.048 C 317.808 204.93 318.902 205.054 319.928 205.413 C 320.955 205.772 321.888 206.356 322.66 207.122 C 323.432 207.888 324.022 208.817 324.388 209.841 C 324.755 210.865 324.887 211.958 324.776 213.039 L 323.697 223.529 C 321.523 244.725 319.348 265.919 317.174 287.112 C 314.906 309.368 312.623 331.622 310.325 353.873 C 309.677 360.142 309.029 366.407 308.381 372.67 C 307.759 378.84 307.671 385.202 306.5 391.298 C 304.653 400.883 298.164 406.77 288.695 408.923 C 280.02 410.897 271.158 411.934 262.262 412.013 C 252.4 412.067 242.542 411.629 232.68 411.683 C 222.151 411.742 209.256 410.77 201.129 402.934 C 193.988 396.052 193.002 385.275 192.03 375.956 C 190.733 363.619 189.449 351.285 188.175 338.952 L 181.03 270.372 L 176.407 225.998 C 176.329 225.264 176.252 224.54 176.179 223.801 C 175.624 218.508 171.877 213.326 165.971 213.594 C 160.916 213.817 155.171 218.114 155.764 223.801 L 159.19 256.699 L 166.277 324.749 C 168.296 344.078 170.31 363.41 172.319 382.747 C 172.708 386.45 173.073 390.165 173.481 393.869 C 175.702 414.109 191.159 425.017 210.301 428.087 C 221.481 429.887 232.933 430.257 244.278 430.44 C 258.821 430.675 273.51 431.234 287.815 428.599 C 309.013 424.709 324.917 410.556 327.187 388.6 C 327.835 382.261 328.483 375.922 329.131 369.58 C 331.286 348.607 333.438 327.633 335.586 306.657 L 342.615 238.121 L 345.838 206.711 C 345.998 205.153 346.656 203.689 347.714 202.534 C 348.771 201.38 350.172 200.596 351.71 200.299 C 357.771 199.118 363.565 197.101 367.876 192.488 C 374.74 185.144 376.106 175.568 373.68 165.915 Z  M 145.668 172.691 C 145.76 172.647 145.59 173.439 145.517 173.808 C 145.503 173.249 145.532 172.754 145.668 172.691 Z  M 146.256 177.24 C 146.305 177.206 146.45 177.401 146.601 177.634 C 146.373 177.42 146.227 177.26 146.251 177.24 L 146.256 177.24 L 146.256 177.24 Z  M 146.834 178.003 C 147.044 178.358 147.155 178.582 146.834 178.003 L 146.834 178.003 L 146.834 178.003 Z  M 147.996 178.946 L 148.025 178.946 C 148.025 178.98 148.079 179.014 148.098 179.048 C 148.066 179.011 148.03 178.977 147.991 178.946 L 147.996 178.946 L 147.996 178.946 Z  M 351.428 177.537 C 349.25 179.607 345.969 180.57 342.727 181.051 C 306.369 186.446 269.481 189.178 232.723 187.973 C 206.417 187.074 180.388 184.152 154.344 180.473 C 151.792 180.113 149.027 179.646 147.272 177.765 C 143.967 174.217 145.59 167.072 146.45 162.784 C 147.238 158.857 148.745 153.622 153.416 153.063 C 160.707 152.208 169.174 155.284 176.388 156.378 C 185.072 157.703 193.789 158.764 202.538 159.562 C 239.879 162.964 277.846 162.434 315.021 157.457 C 321.796 156.546 328.548 155.488 335.275 154.283 C 341.269 153.209 347.913 151.192 351.535 157.399 C 354.018 161.628 354.349 167.285 353.965 172.064 C 353.847 174.145 352.937 176.103 351.423 177.537 L 351.428 177.537 L 351.428 177.537 Z " fill="rgb(13,12,34)"/></g></g><g><path d=" M 244.054 371.888 C 244.054 383.118 238.241 392.367 225.292 392.367 C 216.44 392.367 210.494 388.932 206.398 381.797 L 215.382 375.191 C 217.497 379.155 220.535 381.004 223.574 381.004 C 228.331 381.004 230.841 378.626 230.841 370.831 L 230.841 332.91 L 244.054 332.91 L 244.054 371.888 L 244.054 371.888 Z " fill="rgb(13,12,34)"/><path d=" M 271.537 392.367 C 263.873 392.367 255.814 389.461 249.868 383.911 L 257.399 374.926 C 261.627 378.494 267.044 381.004 271.933 381.004 C 277.483 381.004 280.125 378.89 280.125 375.323 C 280.125 371.623 276.822 370.434 271.669 368.32 L 263.873 365.149 C 257.796 362.771 252.114 357.75 252.114 349.162 C 252.114 339.516 260.702 331.853 272.99 331.853 C 279.729 331.853 286.864 334.495 291.885 339.516 L 285.146 347.84 C 281.314 344.933 277.747 343.216 272.99 343.216 C 268.366 343.216 265.591 345.198 265.591 348.501 C 265.591 352.068 269.423 353.39 274.444 355.372 L 281.975 358.41 C 289.11 361.317 293.602 366.074 293.602 374.266 C 293.602 383.911 285.542 392.367 271.537 392.367 L 271.537 392.367 L 271.537 392.367 Z " fill="rgb(13,12,34)"/></g></g></g></g></g></g></g></g></g></svg>
